<svg width="1440" height="406" viewBox="0 0 1440 406" fill="none" xmlns="http://www.w3.org/2000/svg">
<path d="M0 47.6147L34.4 49.6492C68.8 51.8402 137.6 55.9092 206.08 46.5192C274.72 37.1292 342.88 14.2802 411.52 5.35969C480 -3.56081 548.8 1.76017 617.28 16.0017C685.92 30.3997 754.08 53.8747 822.72 51.0577C891.2 48.0842 960 18.9752 1028.48 16.3147C1097.12 13.6542 1165.28 37.7552 1233.92 49.4927C1302.4 61.2302 1371.2 60.6042 1405.6 60.4477L1440 60.1347V407.565H1405.6C1371.2 407.565 1302.4 407.565 1233.92 407.565C1165.28 407.565 1097.12 407.565 1028.48 407.565C960 407.565 891.2 407.565 822.72 407.565C754.08 407.565 685.92 407.565 617.28 407.565C548.8 407.565 480 407.565 411.52 407.565C342.88 407.565 274.72 407.565 206.08 407.565C137.6 407.565 68.8 407.565 34.4 407.565H0V47.6147Z" fill="black"/>
<path d="M0 55.4404L34.4 58.8834C68.8 62.1699 137.6 69.0559 206.08 76.0984C274.72 83.1409 342.88 90.3399 411.52 92.6874C480 95.0349 548.8 92.5309 617.28 85.9579C685.92 79.3849 754.08 69.0559 822.72 68.4299C891.2 67.9604 960 77.3504 1028.48 72.3424C1097.12 67.4909 1165.28 48.0849 1233.92 43.7029C1302.4 39.3209 1371.2 49.6499 1405.6 54.9709L1440 60.1354V407.565H1405.6C1371.2 407.565 1302.4 407.565 1233.92 407.565C1165.28 407.565 1097.12 407.565 1028.48 407.565C960 407.565 891.2 407.565 822.72 407.565C754.08 407.565 685.92 407.565 617.28 407.565C548.8 407.565 480 407.565 411.52 407.565C342.88 407.565 274.72 407.565 206.08 407.565C137.6 407.565 68.8 407.565 34.4 407.565H0V55.4404Z" fill="#090909"/>
<path d="M0 107.085L34.4 100.512C68.8 94.0953 137.6 80.9493 206.08 78.6018C274.72 76.2543 342.88 84.7054 411.52 85.9574C480 87.2094 548.8 81.5754 617.28 74.5329C685.92 67.4904 754.08 59.0394 822.72 63.5779C891.2 67.9599 960 85.1749 1028.48 97.2254C1097.12 109.119 1165.28 116.005 1233.92 121.17C1302.4 126.334 1371.2 130.09 1405.6 131.812L1440 133.69V407.565H1405.6C1371.2 407.565 1302.4 407.565 1233.92 407.565C1165.28 407.565 1097.12 407.565 1028.48 407.565C960 407.565 891.2 407.565 822.72 407.565C754.08 407.565 685.92 407.565 617.28 407.565C548.8 407.565 480 407.565 411.52 407.565C342.88 407.565 274.72 407.565 206.08 407.565C137.6 407.565 68.8 407.565 34.4 407.565H0V107.085Z" fill="#111111"/>
<path d="M0 124.3L34.4 120.075C68.8 116.006 137.6 107.555 206.08 104.425C274.72 101.295 342.88 103.486 411.52 103.173C480 102.86 548.8 100.356 617.28 101.921C685.92 103.486 754.08 109.12 822.72 117.258C891.2 125.396 960 135.725 1028.48 130.56C1097.12 125.396 1165.28 104.425 1233.92 96.5997C1302.4 88.7747 1371.2 94.0957 1405.6 96.5997L1440 99.2603V407.565H1405.6C1371.2 407.565 1302.4 407.565 1233.92 407.565C1165.28 407.565 1097.12 407.565 1028.48 407.565C960 407.565 891.2 407.565 822.72 407.565C754.08 407.565 685.92 407.565 617.28 407.565C548.8 407.565 480 407.565 411.52 407.565C342.88 407.565 274.72 407.565 206.08 407.565C137.6 407.565 68.8 407.565 34.4 407.565H0V124.3Z" fill="#171717"/>
<path d="M0 124.3L34.4 134.159C68.8 144.175 137.6 163.894 206.08 168.433C274.72 172.815 342.88 161.86 411.52 152.783C480 143.549 548.8 136.35 617.28 141.984C685.92 147.775 754.08 166.555 822.72 167.65C891.2 168.589 960 152 1028.48 140.419C1097.12 128.995 1165.28 122.735 1233.92 128.682C1302.4 134.785 1371.2 152.939 1405.6 162.173L1440 171.25V407.565H1405.6C1371.2 407.565 1302.4 407.565 1233.92 407.565C1165.28 407.565 1097.12 407.565 1028.48 407.565C960 407.565 891.2 407.565 822.72 407.565C754.08 407.565 685.92 407.565 617.28 407.565C548.8 407.565 480 407.565 411.52 407.565C342.88 407.565 274.72 407.565 206.08 407.565C137.6 407.565 68.8 407.565 34.4 407.565H0V124.3Z" fill="#1C1C1C"/>
<path d="M0 164.99L34.4 165.303C68.8 165.46 137.6 166.086 206.08 170.468C274.72 174.85 342.88 183.301 411.52 182.988C480 182.675 548.8 173.911 617.28 173.285C685.92 172.815 754.08 180.64 822.72 189.248C891.2 197.855 960 207.245 1028.48 206.776C1097.12 206.15 1165.28 195.821 1233.92 186.587C1302.4 177.51 1371.2 169.685 1405.6 165.773L1440 161.86V407.565H1405.6C1371.2 407.565 1302.4 407.565 1233.92 407.565C1165.28 407.565 1097.12 407.565 1028.48 407.565C960 407.565 891.2 407.565 822.72 407.565C754.08 407.565 685.92 407.565 617.28 407.565C548.8 407.565 480 407.565 411.52 407.565C342.88 407.565 274.72 407.565 206.08 407.565C137.6 407.565 68.8 407.565 34.4 407.565H0V164.99Z" fill="#212121"/>
<path d="M0 210.375L34.4 215.54C68.8 220.861 137.6 231.19 206.08 231.816C274.72 232.285 342.88 222.895 411.52 213.505C480 204.115 548.8 194.725 617.28 196.29C685.92 197.855 754.08 210.375 822.72 214.757C891.2 219.296 960 215.54 1028.48 217.418C1097.12 219.296 1165.28 226.495 1233.92 225.712C1302.4 224.93 1371.2 216.166 1405.6 211.627L1440 207.245V407.565H1405.6C1371.2 407.565 1302.4 407.565 1233.92 407.565C1165.28 407.565 1097.12 407.565 1028.48 407.565C960 407.565 891.2 407.565 822.72 407.565C754.08 407.565 685.92 407.565 617.28 407.565C548.8 407.565 480 407.565 411.52 407.565C342.88 407.565 274.72 407.565 206.08 407.565C137.6 407.565 68.8 407.565 34.4 407.565H0V210.375Z" fill="#272727"/>
<path d="M0 227.59L34.4 229.624C68.8 231.815 137.6 235.884 206.08 235.415C274.72 234.945 342.88 229.624 411.52 229.155C480 228.685 548.8 232.754 617.28 238.232C685.92 243.709 754.08 250.595 822.72 256.229C891.2 262.02 960 266.715 1028.48 259.985C1097.12 253.099 1165.28 234.945 1233.92 233.537C1302.4 232.285 1371.2 247.935 1405.6 255.76L1440 263.585V407.565H1405.6C1371.2 407.565 1302.4 407.565 1233.92 407.565C1165.28 407.565 1097.12 407.565 1028.48 407.565C960 407.565 891.2 407.565 822.72 407.565C754.08 407.565 685.92 407.565 617.28 407.565C548.8 407.565 480 407.565 411.52 407.565C342.88 407.565 274.72 407.565 206.08 407.565C137.6 407.565 68.8 407.565 34.4 407.565H0V227.59Z" fill="#2C2C2C"/>
<path d="M0 276.105L34.4 273.288C68.8 270.314 137.6 264.68 206.08 266.402C274.72 268.28 342.88 277.67 411.52 284.399C480 291.285 548.8 295.354 617.28 291.285C685.92 287.06 754.08 274.54 822.72 269.532C891.2 264.68 960 267.184 1028.48 274.07C1097.12 280.8 1165.28 291.755 1233.92 294.415C1302.4 296.919 1371.2 291.285 1405.6 288.312L1440 285.495V407.565H1405.6C1371.2 407.565 1302.4 407.565 1233.92 407.565C1165.28 407.565 1097.12 407.565 1028.48 407.565C960 407.565 891.2 407.565 822.72 407.565C754.08 407.565 685.92 407.565 617.28 407.565C548.8 407.565 480 407.565 411.52 407.565C342.88 407.565 274.72 407.565 206.08 407.565C137.6 407.565 68.8 407.565 34.4 407.565H0V276.105Z" fill="#323232"/>
<path d="M0 287.06L34.4 286.747C68.8 286.59 137.6 285.964 206.08 291.285C274.72 296.45 342.88 307.405 411.52 313.195C480 318.829 548.8 319.455 617.28 317.264C685.92 315.23 754.08 310.535 822.72 310.535C891.2 310.535 960 315.23 1028.48 311.787C1097.12 308.5 1165.28 296.919 1233.92 294.572C1302.4 292.224 1371.2 299.11 1405.6 302.397L1440 305.84V407.565H1405.6C1371.2 407.565 1302.4 407.565 1233.92 407.565C1165.28 407.565 1097.12 407.565 1028.48 407.565C960 407.565 891.2 407.565 822.72 407.565C754.08 407.565 685.92 407.565 617.28 407.565C548.8 407.565 480 407.565 411.52 407.565C342.88 407.565 274.72 407.565 206.08 407.565C137.6 407.565 68.8 407.565 34.4 407.565H0V287.06Z" fill="#373737"/>
<path d="M0 346.53L34.4 345.748C68.8 344.965 137.6 343.4 206.08 340.583C274.72 337.61 342.88 333.541 411.52 336.045C480 338.705 548.8 348.095 617.28 350.13C685.92 352.321 754.08 347 822.72 343.087C891.2 339.175 960 336.671 1028.48 332.758C1097.12 328.846 1165.28 323.525 1233.92 324.62C1302.4 325.716 1371.2 332.915 1405.6 336.671L1440 340.27V407.565H1405.6C1371.2 407.565 1302.4 407.565 1233.92 407.565C1165.28 407.565 1097.12 407.565 1028.48 407.565C960 407.565 891.2 407.565 822.72 407.565C754.08 407.565 685.92 407.565 617.28 407.565C548.8 407.565 480 407.565 411.52 407.565C342.88 407.565 274.72 407.565 206.08 407.565C137.6 407.565 68.8 407.565 34.4 407.565H0V346.53Z" fill="#3D3D3D"/>
<path d="M0 365.31L34.4 364.841C68.8 364.215 137.6 363.276 206.08 360.928C274.72 358.581 342.88 354.825 411.52 355.92C480 357.016 548.8 362.65 617.28 366.875C685.92 371.101 754.08 373.605 822.72 373.448C891.2 373.135 960 370.005 1028.48 369.536C1097.12 368.91 1165.28 371.101 1233.92 370.318C1302.4 369.536 1371.2 365.78 1405.6 364.058L1440 362.18V407.565H1405.6C1371.2 407.565 1302.4 407.565 1233.92 407.565C1165.28 407.565 1097.12 407.565 1028.48 407.565C960 407.565 891.2 407.565 822.72 407.565C754.08 407.565 685.92 407.565 617.28 407.565C548.8 407.565 480 407.565 411.52 407.565C342.88 407.565 274.72 407.565 206.08 407.565C137.6 407.565 68.8 407.565 34.4 407.565H0V365.31Z" fill="#434343"/>
</svg>
