<svg width="330" height="53" viewBox="0 0 330 53" fill="none" xmlns="http://www.w3.org/2000/svg">
<path fill-rule="evenodd" clip-rule="evenodd" d="M16 0C7.16344 0 0 7.16344 0 16V37C0 45.8366 7.16345 53 16 53H314C322.837 53 330 45.8366 330 37V16C330 7.16344 322.837 0 314 0H16ZM141.97 32.336H136.45V18.248H133.09V35H141.97V32.336ZM146.553 34.376C147.577 34.936 148.729 35.216 150.009 35.216C151.305 35.216 152.473 34.936 153.513 34.376C154.569 33.8 155.401 32.992 156.009 31.952C156.633 30.912 156.945 29.712 156.945 28.352C156.945 26.992 156.641 25.792 156.033 24.752C155.441 23.712 154.625 22.912 153.585 22.352C152.545 21.776 151.385 21.488 150.105 21.488C148.825 21.488 147.665 21.776 146.625 22.352C145.585 22.912 144.761 23.712 144.153 24.752C143.561 25.792 143.265 26.992 143.265 28.352C143.265 29.712 143.553 30.912 144.129 31.952C144.721 32.992 145.529 33.8 146.553 34.376ZM151.713 31.856C151.185 32.144 150.617 32.288 150.009 32.288C149.049 32.288 148.249 31.952 147.609 31.28C146.985 30.592 146.673 29.616 146.673 28.352C146.673 27.088 146.993 26.12 147.633 25.448C148.289 24.76 149.097 24.416 150.057 24.416C151.017 24.416 151.825 24.76 152.481 25.448C153.153 26.12 153.489 27.088 153.489 28.352C153.489 29.2 153.329 29.92 153.009 30.512C152.689 31.104 152.257 31.552 151.713 31.856ZM167.234 22.088C166.482 21.688 165.61 21.488 164.618 21.488C163.482 21.488 162.45 21.768 161.522 22.328C160.61 22.888 159.882 23.688 159.338 24.728C158.81 25.768 158.546 26.96 158.546 28.304C158.546 29.664 158.81 30.872 159.338 31.928C159.882 32.968 160.618 33.776 161.546 34.352C162.474 34.928 163.498 35.216 164.618 35.216C165.594 35.216 166.458 35.008 167.21 34.592C167.978 34.176 168.578 33.656 169.01 33.032V35.096C169.01 36.28 168.706 37.16 168.098 37.736C167.49 38.328 166.698 38.624 165.722 38.624C164.89 38.624 164.178 38.44 163.586 38.072C163.01 37.72 162.634 37.24 162.458 36.632H159.122C159.282 38.152 159.962 39.352 161.162 40.232C162.378 41.112 163.93 41.552 165.818 41.552C167.226 41.552 168.426 41.264 169.418 40.688C170.41 40.128 171.154 39.36 171.65 38.384C172.146 37.424 172.394 36.328 172.394 35.096V21.704H169.01V23.6C168.578 22.976 167.986 22.472 167.234 22.088ZM168.53 26.264C168.85 26.84 169.01 27.536 169.01 28.352C169.01 29.168 168.85 29.872 168.53 30.464C168.21 31.04 167.778 31.488 167.234 31.808C166.69 32.112 166.106 32.264 165.482 32.264C164.874 32.264 164.298 32.104 163.754 31.784C163.226 31.464 162.794 31.008 162.458 30.416C162.138 29.808 161.978 29.104 161.978 28.304C161.978 27.504 162.138 26.816 162.458 26.24C162.794 25.648 163.226 25.2 163.754 24.896C164.282 24.592 164.858 24.44 165.482 24.44C166.106 24.44 166.69 24.6 167.234 24.92C167.778 25.224 168.21 25.672 168.53 26.264ZM175.892 19.568C176.292 19.936 176.788 20.12 177.38 20.12C177.972 20.12 178.46 19.936 178.844 19.568C179.244 19.184 179.444 18.712 179.444 18.152C179.444 17.592 179.244 17.128 178.844 16.76C178.46 16.376 177.972 16.184 177.38 16.184C176.788 16.184 176.292 16.376 175.892 16.76C175.508 17.128 175.316 17.592 175.316 18.152C175.316 18.712 175.508 19.184 175.892 19.568ZM175.676 35H179.036V21.704H175.676V35ZM193.563 23.024C192.587 22.016 191.307 21.512 189.723 21.512C188.891 21.512 188.123 21.68 187.419 22.016C186.731 22.336 186.163 22.784 185.715 23.36V21.704H182.355V35H185.715V27.656C185.715 26.6 185.979 25.792 186.507 25.232C187.051 24.656 187.787 24.368 188.715 24.368C189.627 24.368 190.347 24.656 190.875 25.232C191.403 25.792 191.667 26.6 191.667 27.656V35H195.027V27.2C195.027 25.408 194.539 24.016 193.563 23.024Z" fill="white"/>
</svg>
