<svg width="352" height="352" viewBox="0 0 352 352" fill="none" xmlns="http://www.w3.org/2000/svg">
<mask id="path-1-inside-1_682_238" fill="white">
<path fill-rule="evenodd" clip-rule="evenodd" d="M176 352C273.202 352 352 273.202 352 176C352 78.7979 273.202 0 176 0C78.7979 0 0 78.7979 0 176C0 273.202 78.7979 352 176 352ZM84.8631 127.997H51.1961V211.131H84.8631L107.576 223.997H145.472L167.605 211.131H252.263H300.796V127.997H252.263H167.605L145.472 142.1H107.576L84.8631 127.997Z"/>
</mask>
<path fill-rule="evenodd" clip-rule="evenodd" d="M176 352C273.202 352 352 273.202 352 176C352 78.7979 273.202 0 176 0C78.7979 0 0 78.7979 0 176C0 273.202 78.7979 352 176 352ZM84.8631 127.997H51.1961V211.131H84.8631L107.576 223.997H145.472L167.605 211.131H252.263H300.796V127.997H252.263H167.605L145.472 142.1H107.576L84.8631 127.997Z" fill="white"/>
<path d="M51.1961 127.997V124.997H48.1961V127.997H51.1961ZM84.8631 127.997L86.4457 125.448L85.7188 124.997H84.8631V127.997ZM51.1961 211.131H48.1961V214.131H51.1961V211.131ZM84.8631 211.131L86.3418 208.521L85.6538 208.131H84.8631V211.131ZM107.576 223.997L106.097 226.607L106.785 226.997H107.576V223.997ZM145.472 223.997V226.997H146.28L146.979 226.591L145.472 223.997ZM167.605 211.131V208.131H166.796L166.097 208.538L167.605 211.131ZM300.796 211.131V214.131H303.796V211.131H300.796ZM300.796 127.997H303.796V124.997H300.796V127.997ZM167.605 127.997V124.997H166.73L165.993 125.467L167.605 127.997ZM145.472 142.1V145.1H146.346L147.084 144.63L145.472 142.1ZM107.576 142.1L105.993 144.649L106.72 145.1H107.576V142.1ZM349 176C349 271.545 271.545 349 176 349V355C274.859 355 355 274.859 355 176H349ZM176 3C271.545 3 349 80.4547 349 176H355C355 77.141 274.859 -3 176 -3V3ZM3 176C3 80.4547 80.4547 3 176 3V-3C77.141 -3 -3 77.141 -3 176H3ZM176 349C80.4547 349 3 271.545 3 176H-3C-3 274.859 77.141 355 176 355V349ZM51.1961 130.997H84.8631V124.997H51.1961V130.997ZM54.1961 211.131V127.997H48.1961V211.131H54.1961ZM84.8631 208.131H51.1961V214.131H84.8631V208.131ZM109.054 221.387L86.3418 208.521L83.3845 213.741L106.097 226.607L109.054 221.387ZM145.472 220.997H107.576V226.997H145.472V220.997ZM166.097 208.538L143.964 221.404L146.979 226.591L169.113 213.725L166.097 208.538ZM252.263 208.131H167.605V214.131H252.263V208.131ZM300.796 208.131H252.263V214.131H300.796V208.131ZM297.796 127.997V211.131H303.796V127.997H297.796ZM252.263 130.997H300.796V124.997H252.263V130.997ZM167.605 130.997H252.263V124.997H167.605V130.997ZM147.084 144.63L169.217 130.527L165.993 125.467L143.86 139.57L147.084 144.63ZM107.576 145.1H145.472V139.1H107.576V145.1ZM83.2806 130.546L105.993 144.649L109.158 139.552L86.4457 125.448L83.2806 130.546Z" fill="white" mask="url(#path-1-inside-1_682_238)"/>
</svg>
