<svg width="330" height="53" viewBox="0 0 330 53" fill="none" xmlns="http://www.w3.org/2000/svg">
<path fill-rule="evenodd" clip-rule="evenodd" d="M16 0C7.16345 0 0 7.16345 0 16V37C0 45.8365 7.16345 53 16 53H314C322.837 53 330 45.8365 330 37V16C330 7.16345 322.837 0 314 0H16ZM121.084 28.472L124.78 35H128.668L124.66 28.208C125.924 27.872 126.876 27.264 127.516 26.384C128.156 25.488 128.476 24.488 128.476 23.384C128.476 22.424 128.244 21.56 127.78 20.792C127.332 20.008 126.652 19.392 125.74 18.944C124.828 18.48 123.724 18.248 122.428 18.248H116.14V35H119.5V28.472H121.084ZM122.308 25.952H119.5V21.032H122.308C123.22 21.032 123.9 21.248 124.348 21.68C124.796 22.096 125.02 22.688 125.02 23.456C125.02 24.24 124.796 24.856 124.348 25.304C123.9 25.736 123.22 25.952 122.308 25.952ZM143.779 29.36C143.843 28.976 143.875 28.544 143.875 28.064C143.875 26.768 143.595 25.624 143.035 24.632C142.491 23.624 141.715 22.848 140.707 22.304C139.715 21.76 138.587 21.488 137.323 21.488C136.011 21.488 134.851 21.768 133.843 22.328C132.835 22.888 132.051 23.688 131.491 24.728C130.931 25.768 130.651 26.976 130.651 28.352C130.651 29.712 130.931 30.912 131.491 31.952C132.067 32.992 132.859 33.8 133.867 34.376C134.891 34.936 136.043 35.216 137.323 35.216C138.907 35.216 140.243 34.808 141.331 33.992C142.419 33.16 143.155 32.104 143.539 30.824H139.915C139.387 31.896 138.499 32.432 137.251 32.432C136.387 32.432 135.659 32.16 135.067 31.616C134.475 31.072 134.139 30.32 134.059 29.36H143.779ZM139.459 25.04C140.067 25.552 140.379 26.24 140.395 27.104H134.083C134.211 26.208 134.555 25.512 135.115 25.016C135.691 24.504 136.395 24.248 137.227 24.248C138.107 24.248 138.851 24.512 139.459 25.04ZM154.152 22.088C153.4 21.688 152.528 21.488 151.536 21.488C150.4 21.488 149.368 21.768 148.44 22.328C147.528 22.888 146.8 23.688 146.256 24.728C145.728 25.768 145.464 26.96 145.464 28.304C145.464 29.664 145.728 30.872 146.256 31.928C146.8 32.968 147.536 33.776 148.464 34.352C149.392 34.928 150.416 35.216 151.536 35.216C152.512 35.216 153.376 35.008 154.128 34.592C154.896 34.176 155.496 33.656 155.928 33.032V35.096C155.928 36.28 155.624 37.16 155.016 37.736C154.408 38.328 153.616 38.624 152.64 38.624C151.808 38.624 151.096 38.44 150.504 38.072C149.928 37.72 149.552 37.24 149.376 36.632H146.04C146.2 38.152 146.88 39.352 148.08 40.232C149.296 41.112 150.848 41.552 152.736 41.552C154.144 41.552 155.344 41.264 156.336 40.688C157.328 40.128 158.072 39.36 158.568 38.384C159.064 37.424 159.312 36.328 159.312 35.096V21.704H155.928V23.6C155.496 22.976 154.904 22.472 154.152 22.088ZM155.448 26.264C155.768 26.84 155.928 27.536 155.928 28.352C155.928 29.168 155.768 29.872 155.448 30.464C155.128 31.04 154.696 31.488 154.152 31.808C153.608 32.112 153.024 32.264 152.4 32.264C151.792 32.264 151.216 32.104 150.672 31.784C150.144 31.464 149.712 31.008 149.376 30.416C149.056 29.808 148.896 29.104 148.896 28.304C148.896 27.504 149.056 26.816 149.376 26.24C149.712 25.648 150.144 25.2 150.672 24.896C151.2 24.592 151.776 24.44 152.4 24.44C153.024 24.44 153.608 24.6 154.152 24.92C154.696 25.224 155.128 25.672 155.448 26.264ZM162.809 19.568C163.209 19.936 163.705 20.12 164.297 20.12C164.89 20.12 165.377 19.936 165.761 19.568C166.161 19.184 166.361 18.712 166.361 18.152C166.361 17.592 166.161 17.128 165.761 16.76C165.377 16.376 164.89 16.184 164.297 16.184C163.705 16.184 163.209 16.376 162.809 16.76C162.426 17.128 162.234 17.592 162.234 18.152C162.234 18.712 162.426 19.184 162.809 19.568ZM162.594 35H165.953V21.704H162.594V35ZM171.433 34.64C172.297 35.024 173.273 35.216 174.361 35.216C175.417 35.216 176.337 35.048 177.121 34.712C177.921 34.36 178.529 33.88 178.945 33.272C179.377 32.664 179.593 31.976 179.593 31.208C179.577 30.328 179.337 29.624 178.873 29.096C178.425 28.552 177.889 28.152 177.265 27.896C176.641 27.64 175.849 27.392 174.889 27.152C173.945 26.912 173.249 26.68 172.801 26.456C172.353 26.216 172.129 25.872 172.129 25.424C172.129 25.024 172.289 24.712 172.609 24.488C172.945 24.264 173.417 24.152 174.025 24.152C174.681 24.152 175.201 24.312 175.585 24.632C175.985 24.936 176.209 25.352 176.257 25.88H179.473C179.377 24.536 178.857 23.472 177.913 22.688C176.969 21.888 175.705 21.488 174.121 21.488C173.049 21.488 172.113 21.664 171.313 22.016C170.529 22.368 169.921 22.848 169.489 23.456C169.073 24.064 168.865 24.736 168.865 25.472C168.865 26.368 169.089 27.08 169.537 27.608C170.001 28.136 170.545 28.528 171.169 28.784C171.809 29.04 172.625 29.288 173.617 29.528C174.577 29.784 175.273 30.024 175.705 30.248C176.153 30.456 176.377 30.776 176.377 31.208C176.377 31.608 176.193 31.936 175.825 32.192C175.473 32.448 174.977 32.576 174.337 32.576C173.681 32.576 173.129 32.408 172.681 32.072C172.249 31.736 172.001 31.312 171.937 30.8H168.553C168.601 31.616 168.873 32.36 169.369 33.032C169.881 33.704 170.569 34.24 171.433 34.64ZM186.263 30.896V24.464H189.239V21.704H186.263V18.416H182.879V21.704H181.295V24.464H182.879V30.872C182.879 33.624 184.295 35 187.127 35H189.239V32.168H187.679C187.167 32.168 186.799 32.072 186.575 31.88C186.367 31.672 186.263 31.344 186.263 30.896ZM203.92 29.36C203.984 28.976 204.016 28.544 204.016 28.064C204.016 26.768 203.736 25.624 203.176 24.632C202.632 23.624 201.856 22.848 200.848 22.304C199.856 21.76 198.728 21.488 197.464 21.488C196.152 21.488 194.992 21.768 193.984 22.328C192.976 22.888 192.192 23.688 191.632 24.728C191.072 25.768 190.792 26.976 190.792 28.352C190.792 29.712 191.072 30.912 191.632 31.952C192.208 32.992 193 33.8 194.008 34.376C195.032 34.936 196.184 35.216 197.464 35.216C199.048 35.216 200.384 34.808 201.472 33.992C202.56 33.16 203.296 32.104 203.68 30.824H200.056C199.528 31.896 198.64 32.432 197.392 32.432C196.528 32.432 195.8 32.16 195.208 31.616C194.616 31.072 194.28 30.32 194.2 29.36H203.92ZM199.6 25.04C200.208 25.552 200.52 26.24 200.536 27.104H194.224C194.352 26.208 194.696 25.512 195.256 25.016C195.832 24.504 196.536 24.248 197.368 24.248C198.248 24.248 198.992 24.512 199.6 25.04ZM211.509 22.112C210.821 22.512 210.26 23.064 209.828 23.768V21.704H206.469V35H209.828V28.376C209.828 27.144 210.093 26.28 210.62 25.784C211.165 25.288 211.964 25.04 213.021 25.04H213.908V21.512C213.012 21.512 212.213 21.712 211.509 22.112Z" fill="white"/>
</svg>
