<svg width="867" height="867" viewBox="0 0 867 867" fill="none" xmlns="http://www.w3.org/2000/svg">
<path d="M26 433.985L229.797 81H637.389L841.184 433.985L637.389 786.97H229.797L26 433.985Z" stroke="white" stroke-width="34"/>
<path d="M262.148 242.915C262.148 221.237 279.723 203.663 301.4 203.663H321.026C342.704 203.663 360.279 221.237 360.279 242.915V605.996C360.279 627.674 342.704 645.248 321.026 645.248H301.4C279.723 645.248 262.148 627.674 262.148 605.996V242.915Z" fill="white"/>
<path d="M497.66 242.915C497.66 221.237 515.234 203.663 536.912 203.663H556.538C578.216 203.663 595.79 221.237 595.79 242.915V605.996C595.79 627.674 578.216 645.248 556.538 645.248H536.912C515.234 645.248 497.66 627.674 497.66 605.996V242.915Z" fill="white"/>
<path d="M428.97 380.297L471.461 404.829V453.894L428.97 478.427L386.479 453.894V404.829L428.97 380.297Z" fill="white"/>
</svg>
